<svg width="160" height="160" viewBox="0 0 160 160" fill="none" xmlns="http://www.w3.org/2000/svg">
<rect width="160" height="160" fill="#6C47FF"/>
<circle cx="80" cy="80" r="20" fill="white"/>
<path d="M115.572 26.788C117.571 28.1272 117.742 30.9444 116.04 32.646L101.424 47.2618C100.103 48.5828 98.0542 48.7914 96.3915 47.9397C91.4752 45.421 85.9035 44 80 44C60.1177 44 44 60.1177 44 80C44 85.9035 45.421 91.4752 47.9397 96.3915C48.7914 98.0542 48.5828 100.103 47.2618 101.424L32.646 116.04C30.9444 117.742 28.1272 117.571 26.788 115.572C19.9741 105.399 16 93.1635 16 80C16 44.6538 44.6538 16 80 16C93.1635 16 105.399 19.9741 115.572 26.788Z" fill="white" fill-opacity="0.4"/>
<path d="M116.04 127.354C117.742 129.056 117.571 131.873 115.572 133.212C105.399 140.026 93.1636 144 80 144C66.8364 144 54.6011 140.026 44.4283 133.212C42.4289 131.873 42.2581 129.056 43.9597 127.354L58.5755 112.738C59.8965 111.417 61.9457 111.209 63.6084 112.06C68.5248 114.579 74.0964 116 80 116C85.9036 116 91.4753 114.579 96.3916 112.06C98.0543 111.209 100.104 111.417 101.425 112.738L116.04 127.354Z" fill="white"/>
</svg>
